<?xml version="1.0" standalone="no"?>
<!DOCTYPE svg PUBLIC "-//W3C//DTD SVG 20010904//EN"
 "http://www.w3.org/TR/2001/REC-SVG-20010904/DTD/svg10.dtd">
<svg version="1.0" xmlns="http://www.w3.org/2000/svg"
 width="4800.000000pt" height="2400.000000pt" viewBox="0 0 4800.000000 2400.000000"
 preserveAspectRatio="xMidYMid meet">

<g transform="translate(0.000000,2400.000000) scale(0.100000,-0.100000)"
fill="#000000" stroke="none">
<path d="M16306 18271 c-3 -4 -27 -16 -53 -26 -26 -10 -72 -28 -101 -41 -29
-13 -58 -24 -65 -24 -7 0 -17 -4 -22 -9 -6 -4 -32 -16 -60 -26 -27 -10 -54
-22 -60 -25 -5 -4 -44 -20 -85 -35 -41 -16 -97 -38 -125 -50 -27 -12 -84 -35
-125 -50 -41 -16 -86 -34 -100 -42 -14 -7 -30 -13 -37 -13 -6 0 -24 -7 -40
-15 -35 -18 -109 -49 -293 -121 -80 -31 -197 -78 -260 -104 -138 -58 -422
-172 -505 -205 -145 -56 -481 -191 -510 -204 -92 -43 -268 -110 -276 -106 -5
4 -9 0 -9 -7 0 -8 85 -57 195 -112 107 -54 195 -102 195 -108 0 -5 5 -6 11 -2
6 3 14 3 18 -2 3 -5 65 -38 137 -74 73 -36 130 -69 127 -73 -3 -5 1 -7 8 -6 8
1 26 -4 42 -11 35 -17 36 -52 2 -78 -14 -11 -25 -25 -25 -30 0 -6 -8 -17 -18
-24 -11 -7 -47 -47 -81 -88 -35 -41 -93 -107 -129 -146 -37 -38 -81 -87 -99
-107 -18 -20 -37 -37 -43 -37 -5 0 -10 -5 -10 -10 0 -6 -12 -24 -27 -40 -16
-17 -39 -44 -53 -61 -14 -17 -42 -49 -62 -72 -21 -23 -57 -65 -80 -94 -24 -28
-53 -57 -65 -64 -13 -7 -23 -17 -23 -23 0 -15 -131 -142 -143 -138 -5 1 -7 -3
-4 -10 2 -7 -7 -26 -19 -41 -13 -16 -24 -34 -24 -41 0 -7 -24 -35 -52 -63 -70
-67 -135 -138 -204 -223 -31 -39 -60 -70 -65 -70 -5 0 -9 -6 -9 -14 0 -8 -15
-27 -32 -43 -36 -32 -218 -228 -218 -235 0 -5 -72 -88 -117 -136 -18 -19 -33
-36 -33 -39 0 -3 -11 -15 -24 -27 -25 -22 -93 -98 -191 -211 -33 -38 -83 -94
-111 -125 -51 -54 -135 -151 -224 -256 -25 -29 -51 -53 -57 -53 -7 -1 -13 -7
-13 -13 0 -7 -35 -50 -78 -94 -42 -45 -79 -86 -80 -90 -9 -21 -168 -194 -179
-194 -7 0 -13 -6 -13 -13 0 -7 -20 -33 -44 -58 -24 -25 -88 -99 -144 -165 -55
-65 -134 -155 -177 -199 -42 -44 -111 -120 -152 -170 -42 -49 -126 -144 -188
-210 -62 -66 -136 -149 -165 -185 -29 -36 -70 -83 -91 -105 -86 -92 -187 -205
-274 -307 -25 -30 -76 -23 -121 17 -33 29 -148 123 -259 210 -198 157 -335
268 -358 289 -16 14 -30 26 -32 26 -2 0 -15 9 -27 21 -13 11 -57 47 -98 80
-41 34 -79 66 -85 72 -11 13 -70 63 -106 89 -13 10 -54 42 -91 73 -37 30 -76
55 -86 55 -10 0 -32 -15 -49 -32 -71 -75 -138 -146 -141 -151 -6 -9 -75 -89
-104 -120 -16 -16 -28 -32 -28 -37 0 -4 -18 -24 -40 -44 -22 -20 -40 -39 -40
-43 0 -5 -41 -48 -90 -98 -50 -49 -90 -93 -90 -97 0 -5 -7 -8 -15 -8 -8 0 -14
-4 -13 -9 2 -5 -33 -47 -77 -93 -144 -152 -225 -242 -225 -250 0 -4 -7 -8 -15
-8 -8 0 -15 -6 -15 -12 -1 -7 -52 -66 -114 -130 -62 -65 -112 -118 -110 -118
1 0 -11 -13 -28 -30 -16 -16 -34 -30 -39 -30 -5 0 -9 -6 -9 -12 0 -7 -45 -60
-100 -118 -55 -58 -102 -111 -105 -117 -2 -7 -11 -13 -18 -13 -8 0 -18 -9 -23
-19 -5 -11 -36 -48 -69 -83 -33 -35 -80 -85 -104 -113 -121 -137 -256 -275
-268 -275 -8 0 -11 -5 -8 -10 4 -6 -19 -36 -50 -68 -32 -31 -94 -97 -139 -147
-44 -49 -98 -107 -118 -129 -21 -21 -38 -42 -38 -46 0 -4 -7 -11 -16 -14 -15
-6 -64 26 -106 67 -10 9 -21 17 -26 17 -4 0 -21 14 -39 30 -18 17 -35 30 -38
30 -16 0 -189 139 -255 205 -42 42 -79 55 -92 32 -4 -9 -14 -22 -21 -29 -7 -7
-86 -94 -176 -193 -90 -99 -170 -185 -177 -191 -8 -6 -14 -14 -14 -17 0 -3
-21 -27 -48 -54 -26 -28 -100 -109 -165 -181 -65 -73 -123 -132 -128 -132 -5
0 -9 -6 -9 -12 -1 -20 -130 -149 -141 -142 -6 3 -9 0 -8 -7 3 -14 -32 -58
-103 -132 -21 -22 -38 -42 -38 -46 0 -3 -45 -53 -100 -111 -55 -58 -100 -107
-100 -110 0 -3 -22 -26 -48 -52 -68 -67 -107 -110 -206 -226 -49 -57 -138
-154 -198 -215 -60 -62 -116 -122 -125 -134 -8 -13 -22 -23 -29 -23 -8 0 -13
-3 -11 -8 3 -10 -142 -182 -159 -189 -8 -3 -14 -11 -14 -18 0 -6 -19 -30 -42
-51 -50 -46 -219 -230 -231 -250 -4 -8 -15 -14 -24 -14 -9 0 -14 -3 -10 -6 6
-6 -155 -198 -178 -212 -7 -4 -31 -29 -55 -57 -23 -27 -70 -79 -104 -115 -33
-36 -95 -104 -136 -150 -41 -46 -85 -94 -97 -107 -13 -13 -23 -26 -23 -29 0
-2 -16 -19 -36 -37 -19 -18 -41 -45 -49 -62 -7 -16 -70 -92 -139 -168 l-126
-138 67 -63 c38 -35 129 -117 203 -183 75 -66 162 -148 195 -182 33 -33 65
-61 71 -61 6 0 61 54 123 119 61 65 125 125 142 134 17 8 29 17 27 20 -4 7 58
80 158 186 79 84 89 94 189 207 39 43 82 89 97 103 16 14 28 28 28 32 0 4 27
35 61 70 33 35 91 98 127 139 36 41 98 109 137 150 107 115 234 255 320 353
42 48 81 87 86 87 5 0 9 6 9 13 0 8 31 44 70 81 38 37 70 70 70 73 0 3 18 24
40 47 58 59 109 116 137 154 14 17 32 32 39 32 8 0 13 4 11 8 -3 11 139 176
201 233 26 24 90 93 142 153 52 60 106 121 120 136 14 15 54 62 90 103 36 42
71 76 78 76 6 1 12 5 12 10 0 5 24 34 53 63 28 30 79 84 112 121 33 37 66 67
73 67 7 0 10 5 6 11 -3 6 3 21 15 33 12 11 30 32 40 46 19 25 19 25 64 8 46
-17 52 -21 119 -80 20 -18 49 -43 65 -56 15 -12 96 -78 179 -146 83 -68 161
-129 172 -135 17 -9 25 -5 56 32 20 23 42 49 50 59 8 9 70 83 137 165 68 81
127 150 131 151 4 2 8 10 8 18 0 8 4 14 9 14 4 0 24 19 42 43 68 87 162 186
171 181 5 -3 8 1 6 9 -3 15 315 367 332 367 6 0 10 5 10 11 0 6 24 35 53 64
67 68 207 220 284 310 68 79 103 112 104 99 0 -5 4 1 10 14 5 13 13 20 19 17
5 -3 10 2 10 12 0 24 80 103 105 103 14 0 16 3 7 8 -9 6 -5 15 15 34 16 14 60
60 98 103 39 44 79 88 91 99 12 12 44 48 71 81 28 33 74 85 103 115 290 305
365 380 377 380 7 0 35 -20 61 -45 26 -25 50 -45 54 -45 6 0 228 -176 276
-219 12 -12 25 -21 28 -21 8 0 51 -45 57 -61 4 -10 6 -10 6 -1 1 16 139 -98
140 -115 1 -7 5 -13 11 -13 5 0 22 -11 37 -25 59 -51 166 -135 174 -135 5 0 9
-5 9 -11 0 -13 25 -39 38 -39 5 0 20 -12 35 -27 14 -16 33 -34 41 -40 109 -90
224 -190 237 -206 25 -30 52 -14 113 67 31 41 91 112 135 157 44 46 88 93 99
104 10 11 60 71 111 132 51 62 98 116 104 120 13 8 161 173 237 264 25 29 66
76 93 103 26 28 47 54 47 58 0 5 7 8 17 8 9 0 13 3 10 7 -4 3 14 29 41 57 76
83 125 138 161 181 18 22 66 76 105 119 39 44 118 132 175 195 57 64 110 123
117 131 7 8 23 26 35 39 12 13 49 56 83 95 77 91 243 276 265 296 9 8 62 69
118 136 56 66 115 133 132 147 17 14 31 28 31 32 0 3 29 36 64 73 35 37 83 91
105 119 23 29 94 110 159 180 132 143 153 167 242 271 34 41 68 76 76 79 8 3
14 10 14 15 0 10 55 72 156 175 28 29 49 53 46 53 -2 0 13 19 34 43 21 23 40
40 42 37 2 -3 9 7 15 22 7 14 44 60 82 100 39 41 112 122 164 181 52 59 98
107 103 107 4 0 8 4 8 10 0 5 18 29 39 52 22 24 71 79 109 123 38 44 92 104
119 133 28 29 67 74 89 102 21 27 45 49 52 50 6 0 12 5 12 10 0 14 40 57 40
44 1 -5 7 5 14 21 7 17 54 73 104 125 51 52 92 97 92 100 0 3 34 41 75 85 41
43 75 82 75 85 0 3 22 29 49 58 54 59 81 65 102 25 8 -16 20 -34 27 -41 6 -7
12 -17 12 -21 0 -4 8 -16 18 -27 9 -10 37 -50 62 -89 25 -38 50 -76 57 -83 6
-7 22 -30 34 -52 13 -22 27 -40 31 -40 5 0 6 -4 3 -10 -3 -5 -2 -10 3 -10 4 0
18 -18 31 -40 12 -22 28 -45 35 -52 21 -22 86 -128 78 -128 -4 0 0 -5 10 -10
18 -11 82 -110 71 -110 -4 0 2 -7 13 -15 12 -8 29 -30 38 -50 17 -36 48 -49
43 -17 -2 21 42 211 61 262 6 15 7 26 11 63 0 11 6 15 13 11 7 -5 9 -2 5 9 -3
8 -2 30 3 49 5 18 11 44 14 58 15 84 58 240 65 240 3 0 6 10 7 23 2 53 18 121
66 297 12 41 22 84 24 95 1 11 3 22 4 25 1 3 2 8 1 13 0 4 4 7 10 7 5 0 7 5 4
10 -4 6 -2 25 4 43 6 17 12 45 15 60 3 15 12 54 22 85 9 31 18 66 19 77 2 11
13 58 25 105 12 47 30 119 41 160 10 41 30 118 44 170 14 52 25 102 25 111 0
9 7 36 15 60 14 39 22 80 24 117 1 7 6 10 13 6 7 -5 9 -2 5 8 -3 9 0 38 7 64
16 59 45 181 50 209 2 11 11 45 20 75 8 30 17 66 20 80 2 14 11 50 20 80 8 30
17 66 20 80 2 14 11 50 20 79 9 30 16 58 16 63 0 11 -17 10 -24 -1z"/>
<path d="M25426 17749 c-353 -34 -673 -123 -981 -274 -254 -124 -467 -277
-656 -471 -321 -331 -514 -728 -581 -1199 -16 -115 -16 -471 1 -595 53 -397
192 -718 449 -1036 221 -275 526 -506 932 -708 266 -132 441 -206 850 -359
539 -202 786 -310 998 -436 267 -159 404 -311 457 -506 26 -95 31 -258 11
-347 -56 -252 -271 -472 -565 -578 -185 -67 -233 -75 -486 -75 -248 1 -339 9
-568 55 -399 80 -768 258 -1141 550 -64 50 -120 90 -124 88 -4 -2 -245 -243
-537 -536 l-530 -534 35 -30 c65 -55 302 -230 424 -313 662 -450 1274 -647
2161 -695 733 -39 1189 40 1685 291 517 261 906 668 1103 1154 48 117 85 243
114 390 28 142 25 593 -5 769 -75 434 -221 743 -499 1052 -290 323 -816 641
-1458 882 -60 23 -209 78 -330 123 -882 328 -1275 577 -1390 884 -37 97 -46
149 -47 255 0 120 20 199 80 314 81 155 231 296 407 383 176 88 338 123 564
123 546 0 978 -161 1387 -516 l71 -62 329 331 c739 745 719 724 703 743 -35
42 -274 232 -393 312 -524 353 -1059 523 -1791 572 -177 11 -553 11 -679 -1z"/>
<path d="M30708 13762 c-999 -2116 -1820 -3855 -1824 -3864 -6 -17 37 -18 819
-18 l824 0 140 298 c77 163 241 512 364 775 l223 477 1865 -2 1866 -3 355
-767 355 -768 827 0 827 0 -125 263 c-68 144 -889 1880 -1823 3857 l-1698
3595 -589 2 -589 3 -1817 -3848z m3051 288 l630 -1365 -1276 -3 c-702 -1
-1278 0 -1280 1 -2 2 286 621 639 1375 354 754 646 1368 650 1364 3 -4 290
-621 637 -1372z"/>
<path d="M38110 13750 l0 -3860 735 0 735 0 2 2578 3 2579 1157 -2051 c637
-1128 1162 -2051 1168 -2051 11 0 387 630 485 812 32 62 63 109 69 106 5 -3 6
-2 3 4 -8 13 446 783 472 803 4 3 317 529 697 1169 l689 1163 3 -2556 2 -2556
740 0 740 0 0 3860 0 3860 -821 -2 -820 -3 -1103 -1887 c-607 -1038 -1109
-1896 -1117 -1907 -13 -18 -98 130 -1079 1887 l-1066 1907 -847 3 -847 2 0
-3860z"/>
<path d="M17100 13744 l0 -3854 1648 0 c907 0 2054 -3 2550 -7 l902 -6 0 662
0 662 -1820 -7 -1820 -7 2 1064 3 1064 1793 -4 1792 -4 0 608 0 608 -1792 -4
-1792 -4 3 915 c1 503 5 917 8 920 2 3 819 4 1814 2 l1809 -4 0 625 0 625
-2550 0 -2550 0 0 -3854z"/>
<path d="M18985 8030 c-128 -18 -253 -74 -343 -155 -166 -149 -216 -406 -118
-610 80 -168 196 -248 563 -389 138 -53 234 -111 263 -158 24 -39 27 -116 6
-157 -45 -86 -146 -126 -295 -118 -120 6 -180 28 -296 108 l-88 61 -130 -130
c-150 -150 -147 -134 -32 -212 132 -89 267 -146 367 -154 285 -25 337 -26 415
-11 307 63 498 310 462 597 -31 251 -165 378 -549 523 -278 106 -359 172 -348
286 10 101 99 169 228 177 127 7 241 -30 331 -106 l41 -35 131 131 c114 114
129 133 117 147 -25 30 -175 123 -243 149 -38 15 -101 33 -140 41 -96 18 -268
25 -342 15z"/>
<path d="M45025 8030 c-128 -18 -253 -74 -343 -155 -166 -149 -216 -406 -118
-610 80 -168 196 -248 563 -389 138 -53 234 -111 263 -158 24 -39 27 -116 6
-157 -37 -71 -136 -121 -238 -121 -68 0 -190 27 -255 56 -31 13 -85 45 -120
70 l-65 47 -131 -131 c-150 -150 -148 -134 -28 -215 185 -125 366 -177 614
-177 395 0 669 268 626 612 -31 251 -165 378 -549 523 -278 106 -359 172 -348
286 10 101 99 169 228 177 127 7 241 -30 331 -106 l41 -35 131 131 c114 114
129 133 117 147 -25 30 -175 123 -243 149 -38 15 -101 33 -140 41 -96 18 -268
25 -342 15z"/>
<path d="M20646 8015 c-335 -69 -610 -297 -731 -604 -46 -118 -60 -205 -59
-361 2 -173 20 -255 90 -399 102 -214 252 -360 478 -467 229 -108 513 -123
759 -40 153 52 350 184 429 287 l26 35 -129 135 -129 134 -21 -30 c-37 -50
-134 -138 -191 -173 -94 -56 -161 -75 -284 -80 -196 -7 -332 45 -469 182 -130
130 -185 258 -185 431 0 167 57 301 180 425 235 237 588 253 845 40 33 -27 71
-65 85 -85 14 -19 31 -34 39 -32 7 1 68 60 135 131 l121 128 -80 77 c-127 121
-257 198 -421 247 -78 23 -109 27 -254 30 -115 2 -186 -1 -234 -11z"/>
<path d="M36790 8015 c-391 -83 -683 -363 -777 -743 -26 -104 -23 -322 5 -436
105 -424 472 -719 923 -743 289 -15 547 81 756 282 l93 90 0 318 0 317 -370 0
-370 0 0 -160 0 -160 190 0 190 0 0 -84 0 -84 -47 -35 c-124 -90 -245 -131
-388 -131 -260 0 -490 155 -593 399 -88 212 -31 474 141 647 115 115 255 176
422 185 197 10 345 -45 479 -179 43 -43 82 -78 85 -78 4 0 61 56 126 126 l118
125 -30 37 c-91 112 -315 250 -478 293 -103 28 -374 36 -475 14z"/>
<path d="M38698 8020 c-390 -66 -704 -361 -795 -748 -26 -112 -23 -338 6 -447
45 -171 153 -350 278 -465 123 -112 288 -202 449 -242 115 -29 359 -32 468 -5
319 79 584 306 700 598 49 125 60 193 60 354 0 124 -4 164 -22 234 -99 368
-397 645 -770 717 -79 15 -294 17 -374 4z m312 -356 c219 -51 410 -238 466
-455 20 -77 22 -204 5 -279 -49 -212 -229 -402 -438 -463 -324 -96 -682 113
-768 448 -20 77 -19 221 1 299 54 210 246 398 459 450 79 19 195 19 275 0z"/>
<path d="M40766 8015 c-335 -69 -610 -297 -731 -604 -46 -118 -60 -205 -59
-361 2 -173 20 -255 90 -399 102 -214 252 -360 478 -467 229 -108 513 -123
759 -40 153 52 350 184 429 287 l26 35 -129 135 -129 134 -21 -30 c-37 -50
-134 -138 -191 -173 -94 -56 -161 -75 -284 -80 -196 -7 -332 45 -469 182 -130
130 -185 258 -185 431 0 167 57 301 180 425 235 237 588 253 845 40 33 -27 71
-65 85 -85 14 -19 31 -34 39 -32 7 1 68 60 135 131 l121 128 -80 77 c-127 121
-257 198 -421 247 -78 23 -109 27 -254 30 -115 2 -186 -1 -234 -11z"/>
<path d="M43208 8020 c-390 -66 -704 -361 -795 -748 -26 -112 -23 -338 6 -447
45 -171 153 -350 278 -465 123 -112 288 -202 449 -242 115 -29 359 -32 468 -5
319 79 584 306 700 598 49 125 60 193 60 354 0 124 -4 164 -22 234 -99 368
-397 645 -770 717 -79 15 -294 17 -374 4z m312 -356 c219 -51 410 -238 466
-455 20 -77 22 -204 5 -279 -49 -212 -229 -402 -438 -463 -324 -96 -682 113
-768 448 -20 77 -19 221 1 299 54 210 246 398 459 450 79 19 195 19 275 0z"/>
<path d="M17100 7060 l0 -940 620 0 620 0 0 165 0 165 -435 0 -435 0 0 250 0
250 430 0 430 0 0 150 0 150 -430 0 -430 0 0 220 0 220 435 0 435 0 0 155 0
155 -620 0 -620 0 0 -940z"/>
<path d="M21690 7431 c0 -623 2 -655 60 -814 133 -363 483 -567 890 -518 273
33 489 184 609 423 97 195 95 174 99 871 l3 607 -185 0 -185 0 -3 -582 c-3
-571 -4 -584 -26 -649 -46 -137 -132 -233 -250 -281 -49 -19 -75 -23 -182 -23
-120 0 -128 1 -192 32 -129 61 -208 163 -248 319 -19 72 -20 112 -20 631 l0
553 -185 0 -185 0 0 -569z"/>
<path d="M23550 7060 l0 -940 620 0 620 0 0 165 0 165 -435 0 -435 0 0 250 0
250 430 0 430 0 0 150 0 150 -430 0 -430 0 0 220 0 220 435 0 435 0 0 155 0
155 -620 0 -620 0 0 -940z"/>
<path d="M24970 7060 l0 -940 807 2 807 3 87 185 87 185 448 0 448 0 86 -185
86 -185 202 -3 c124 -1 202 1 202 7 0 5 -197 427 -439 938 l-438 928 -148 0
-148 0 -406 -860 -406 -859 -3 102 -3 102 -444 0 -445 0 0 760 0 760 -190 0
-190 0 0 -940z m2384 78 c80 -174 146 -319 146 -322 0 -3 -135 -6 -299 -6
l-299 0 151 324 c84 178 153 323 154 322 0 0 67 -144 147 -318z"/>
<path d="M28950 7060 l0 -942 458 5 c377 4 468 8 522 21 338 85 575 329 662
683 25 104 30 329 9 428 -64 305 -233 533 -486 655 -174 84 -167 83 -697 88
l-468 3 0 -941z m845 625 c96 -25 181 -72 253 -140 77 -73 123 -143 160 -247
23 -66 26 -87 26 -218 0 -131 -3 -153 -27 -227 -34 -102 -112 -220 -181 -275
-72 -58 -181 -107 -273 -123 -47 -9 -149 -14 -255 -15 l-178 0 0 630 0 630
208 0 c153 0 223 -4 267 -15z"/>
<path d="M30790 7060 l0 -940 620 0 620 0 0 165 0 165 -435 0 -435 0 0 250 0
250 430 0 430 0 0 150 0 150 -430 0 -430 0 0 220 0 220 435 0 435 0 0 155 0
155 -620 0 -620 0 0 -940z"/>
<path d="M32840 7060 l0 -940 185 0 185 0 2 641 3 641 411 -638 411 -639 181
-3 182 -2 0 940 0 940 -180 0 -180 0 -2 -600 -3 -600 -389 600 -390 600 -208
0 -208 0 0 -940z"/>
<path d="M34640 7060 l0 -940 620 0 620 0 0 165 0 165 -435 0 -435 0 0 250 0
250 430 0 430 0 0 150 0 150 -430 0 -430 0 0 220 0 220 435 0 435 0 0 155 0
155 -620 0 -620 0 0 -940z"/>
<path d="M41840 7060 l0 -940 185 0 185 0 0 940 0 940 -185 0 -185 0 0 -940z"/>
</g>
</svg>
