<svg xmlns="http://www.w3.org/2000/svg" viewBox="0 0 706 134">
  <defs>
    <style>
      .cls-1 {
        fill: #fff;
      }
      .cls-2 {
        fill: #e797a5;
      }
      .cls-3 {
        fill: #cf2f4c;
      }
    </style>
  </defs>
  <title>coreui angular negative</title>
  <g id="Layer_1" data-name="Layer 1">
    <g>
        <path d="M10.23 12.836l-3.75-2.166c-0.164-0.096-0.363-0.154-0.576-0.154s-0.412 0.059-0.582 0.158l0.004-0.004-3.75 2.166c-0.346 0.203-0.574 0.574-0.576 0.998v4.33c0 0.426 0.23 0.797 0.572 0.996l0.004 0.004 3.75 2.164c0.166 0.098 0.365 0.156 0.578 0.156s0.412-0.059 0.582-0.158l-0.006 0.002 3.75-2.164c0.348-0.203 0.576-0.574 0.578-1v-4.328c-0.002-0.426-0.23-0.797-0.572-0.998zM10.039 18.164c0 0.143-0.076 0.266-0.191 0.332l-0.002 0.002-3.75 2.164c-0.055 0.033-0.121 0.053-0.191 0.053-0.072 0-0.139-0.020-0.195-0.053h0.002l-3.75-2.164c-0.115-0.068-0.191-0.191-0.191-0.334v-4.328c0-0.143 0.076-0.266 0.189-0.332l0.002-0.002 3.75-2.164c0.055-0.033 0.121-0.053 0.193-0.053 0.070 0 0.137 0.020 0.193 0.053h-0.002l3.75 2.164c0.117 0.068 0.193 0.191 0.193 0.334z"/>
        <path d="M8.117 17.254h-0.275c-0.068 0-0.131 0.018-0.188 0.049l0.002-0.002-1.66 0.912-1.92-1.107v-2.209l1.918-1.107 1.664 0.908c0.053 0.029 0.117 0.047 0.184 0.047h0.275c0.105 0 0.193-0.086 0.193-0.191v-0.262c0-0.072-0.041-0.135-0.1-0.168l-1.846-1.010c-0.107-0.059-0.234-0.094-0.369-0.094-0.143 0-0.275 0.037-0.389 0.104l0.004-0.002-1.92 1.109c-0.23 0.135-0.383 0.383-0.385 0.664v2.211c0 0.283 0.154 0.529 0.383 0.664l0.002 0.002 1.92 1.107c0.109 0.064 0.242 0.102 0.383 0.102 0.137 0 0.264-0.035 0.375-0.096l-0.004 0.002 1.844-1.012c0.061-0.033 0.1-0.098 0.1-0.17v-0.26c0-0.105-0.086-0.191-0.191-0.191z"/>
        <path d="M17.225 13.73c-0.795 0.002-1.441 0.646-1.441 1.441v1.662c0 0.797 0.645 1.443 1.441 1.443 0.799 0 1.443-0.646 1.443-1.443v-1.662c0-0.795-0.646-1.441-1.441-1.441zM17.898 16.834c0 0.371-0.301 0.674-0.674 0.674-0.371 0-0.672-0.303-0.672-0.674v-1.662c0-0.371 0.301-0.672 0.672-0.672 0.373 0 0.674 0.301 0.674 0.672z"/>
        <path d="M13.699 14.506c0.027-0.004 0.059-0.008 0.088-0.008 0.344 0 0.625 0.256 0.668 0.588l0.002 0.004c0.006 0.047 0.045 0.082 0.094 0.082h0.58c0.055 0 0.098-0.043 0.098-0.098 0-0.002 0-0.006-0.002-0.008-0.057-0.75-0.68-1.336-1.439-1.336-0.025 0-0.049 0-0.074 0.002h0.004c-0.775 0.037-1.369 0.707-1.369 1.482v1.578c0 0.775 0.594 1.443 1.369 1.482 0.021 0 0.045 0.002 0.070 0.002 0.76 0 1.383-0.586 1.439-1.332l0.002-0.006c0-0.002 0-0.006 0-0.008 0-0.053-0.043-0.098-0.096-0.098h-0.58c0 0 0 0-0.002 0-0.047 0-0.088 0.037-0.094 0.084-0.043 0.334-0.326 0.59-0.67 0.59-0.029 0-0.061-0.002-0.090-0.006h0.004c-0.334-0.053-0.586-0.338-0.586-0.682 0-0.002 0-0.006 0-0.010v-1.613c0-0.004 0-0.008 0-0.012 0-0.342 0.252-0.627 0.582-0.68h0.004z"/>
        <path d="M21.666 16.381c0.41-0.188 0.689-0.594 0.691-1.064v-0.355c0-0.646-0.523-1.168-1.168-1.168h-1.631c-0.053 0-0.096 0.043-0.096 0.096v4.23c0 0.053 0.043 0.096 0.096 0.096h0.576c0.053 0 0.096-0.043 0.096-0.096v-1.635h0.637l0.762 1.674c0.016 0.035 0.049 0.057 0.088 0.057h0.633c0.053 0 0.096-0.043 0.096-0.096 0-0.014-0.002-0.027-0.010-0.041l0.002 0.002zM21.588 15.316c-0.002 0.219-0.18 0.398-0.4 0.398h-0.947v-1.154h0.947c0.221 0 0.398 0.18 0.398 0.398z"/>
        <path d="M25.711 13.791h-2.5c-0.053 0-0.096 0.043-0.096 0.096v4.232c0 0.053 0.043 0.096 0.096 0.096h2.5c0.053 0 0.096-0.043 0.096-0.096v-0.578c0-0.053-0.043-0.096-0.096-0.096h-1.826v-1.154h1.25c0.053 0 0.096-0.043 0.096-0.096v-0.576c0-0.053-0.043-0.096-0.096-0.096h-1.25v-0.963h1.826c0.053 0 0.096-0.043 0.096-0.096v-0.576c0-0.053-0.043-0.096-0.096-0.096z"/>
        <path d="M29.365 13.791h-0.576c-0.053 0-0.096 0.043-0.096 0.096v2.178c0 0.010 0 0.020 0 0.029 0 0.373-0.303 0.674-0.674 0.674s-0.674-0.301-0.674-0.674c0-0.010 0-0.020 0-0.029v-2.178c0-0.053-0.043-0.096-0.096-0.096h-0.576c-0.053 0-0.096 0.043-0.096 0.096v2.178c0 0.010-0.002 0.020-0.002 0.029 0 0.797 0.646 1.443 1.443 1.443s1.443-0.646 1.443-1.443c0-0.010 0-0.020-0.002-0.029v-2.178c0-0.053-0.043-0.096-0.096-0.096z"/>
        <path d="M30.326 13.791h0.578c0.053 0 0.096 0.043 0.096 0.096v3.463c0 0.053-0.043 0.096-0.096 0.096h-0.578c-0.053 0-0.096-0.043-0.096-0.096v-3.463c0-0.053 0.043-0.096 0.096-0.096z"/>
    </g>
    <g>
      <g>
        <path class="cls-1" d="M99.835,36.0577l-39-22.5167a12,12,0,0,0-12,0l-39,22.5166a12.0339,12.0339,0,0,0-6,10.3924V91.4833a12.0333,12.0333,0,0,0,6,10.3923l39,22.5167a12,12,0,0,0,12,0l39-22.5167a12.0331,12.0331,0,0,0,6-10.3923V46.45A12.0334,12.0334,0,0,0,99.835,36.0577Zm-2,55.4256a4,4,0,0,1-2,3.4641l-39,22.5167a4.0006,4.0006,0,0,1-4,0l-39-22.5167a4,4,0,0,1-2-3.4641V46.45a4,4,0,0,1,2-3.4642l39-22.5166a4,4,0,0,1,4,0l39,22.5166a4,4,0,0,1,2,3.4642Z"/>
        <path class="cls-1" d="M77.8567,82.0046h-2.866a4,4,0,0,0-1.9247.4934L55.7852,91.9833,35.835,80.4648V57.4872l19.95-11.5185,17.2893,9.4549a3.9993,3.9993,0,0,0,1.9192.4906h2.8632a2,2,0,0,0,2-2V51.2024a2,2,0,0,0-1.04-1.7547L59.628,38.9521a8.0391,8.0391,0,0,0-7.8428.09L31.8346,50.56a8.0246,8.0246,0,0,0-4,6.9287v22.976a8,8,0,0,0,4,6.9283l19.95,11.5186a8.0429,8.0429,0,0,0,7.8433.0879l19.19-10.5312a2,2,0,0,0,1.0378-1.7533v-2.71A2,2,0,0,0,77.8567,82.0046Z"/>
      </g>
      <g>
        <path class="cls-1" d="M172.58,45.3618a15.0166,15.0166,0,0,0-15,14.9995V77.6387a15,15,0,0,0,30,0V60.3613A15.0166,15.0166,0,0,0,172.58,45.3618Zm7,32.2769a7,7,0,0,1-14,0V60.3613a7,7,0,0,1,14,0Z"/>
        <path class="cls-1" d="M135.9138,53.4211a7.01,7.01,0,0,1,7.8681,6.0752.9894.9894,0,0,0,.9843.865h6.03a1.0108,1.0108,0,0,0,.9987-1.0971,15.0182,15.0182,0,0,0-15.7162-13.8837,15.2881,15.2881,0,0,0-14.2441,15.4163V77.2037A15.288,15.288,0,0,0,136.0792,92.62a15.0183,15.0183,0,0,0,15.7162-13.8842,1.0107,1.0107,0,0,0-.9987-1.0971h-6.03a.9894.9894,0,0,0-.9843.865,7.01,7.01,0,0,1-7.8679,6.0757,7.1642,7.1642,0,0,1-6.0789-7.1849V60.6057A7.1638,7.1638,0,0,1,135.9138,53.4211Z"/>
        <path class="cls-1" d="M218.7572,72.9277a12.1585,12.1585,0,0,0,7.1843-11.0771V58.1494A12.1494,12.1494,0,0,0,213.7921,46H196.835a1,1,0,0,0-1,1V91a1,1,0,0,0,1,1h6a1,1,0,0,0,1-1V74h6.6216l7.9154,17.4138a1,1,0,0,0,.91.5862h6.5911a1,1,0,0,0,.91-1.4138Zm-.8157-11.0771A4.1538,4.1538,0,0,1,213.7926,66h-9.8511V54h9.8511a4.1538,4.1538,0,0,1,4.1489,4.1494Z"/>
        <path class="cls-1" d="M260.835,46h-26a1,1,0,0,0-1,1V91a1,1,0,0,0,1,1h26a1,1,0,0,0,1-1V85a1,1,0,0,0-1-1h-19V72h13a1,1,0,0,0,1-1V65a1,1,0,0,0-1-1h-13V54h19a1,1,0,0,0,1-1V47A1,1,0,0,0,260.835,46Z"/>
        <path class="cls-1" d="M298.835,46h-6a1,1,0,0,0-1,1V69.6475a7.0066,7.0066,0,1,1-14,0V47a1,1,0,0,0-1-1h-6a1,1,0,0,0-1,1V69.6475a15.0031,15.0031,0,1,0,30,0V47A1,1,0,0,0,298.835,46Z"/>
        <rect class="cls-1" x="307.835" y="46" width="8" height="38" rx="1"/>
      </g>
    </g>
  </g>
</svg>
<svg xmlns="http://www.w3.org/2000/svg" width="32" height="32" viewBox="0 0 32 32">
</svg>
